<?xml version="1.0" standalone="no"?>
<!DOCTYPE svg PUBLIC "-//W3C//DTD SVG 20010904//EN"
 "http://www.w3.org/TR/2001/REC-SVG-20010904/DTD/svg10.dtd">
<svg version="1.0" xmlns="http://www.w3.org/2000/svg"
 width="120.000000pt" height="120.000000pt" viewBox="0 0 120.000000 120.000000"
 preserveAspectRatio="xMidYMid meet">
<metadata>
Created by potrace 1.14, written by Peter Selinger 2001-2017
</metadata>
<g transform="translate(0.000000,120.000000) scale(0.100000,-0.100000)"
fill="#000000" stroke="none">
<path d="M204 925 c-4 -9 -4 -27 -2 -40 4 -21 1 -25 -18 -25 -22 0 -23 -2 -23
-116 0 -64 -2 -118 -4 -121 -3 -2 -20 -5 -39 -6 -32 -2 -33 -4 -33 -42 0 -38
1 -40 32 -40 17 0 34 -3 37 -6 4 -4 7 -59 8 -123 1 -104 3 -116 19 -116 13 0
19 -9 21 -37 l3 -38 63 -3 62 -3 0 41 c0 42 -3 44 -52 41 l-27 -1 -3 122 c-3
101 -6 123 -18 123 -11 0 -16 13 -18 43 -3 37 -1 43 15 40 16 -3 18 8 21 120
l3 122 39 0 c40 0 40 0 40 40 l0 40 -60 0 c-45 0 -62 -4 -66 -15z"/>
<path d="M870 900 l0 -40 40 0 40 0 0 -120 c0 -118 2 -126 33 -121 5 1 7 -18
5 -41 -2 -30 -7 -43 -18 -43 -12 0 -15 -21 -18 -122 -3 -119 -3 -122 -25 -121
-54 2 -57 0 -57 -42 l0 -41 63 3 62 3 0 35 c0 27 5 36 20 40 18 5 20 15 22
119 1 62 5 116 8 120 4 3 21 6 38 6 31 0 32 2 32 40 0 38 -1 40 -33 42 -19 1
-36 4 -39 6 -2 3 -5 56 -4 117 0 103 -2 113 -20 117 -15 4 -19 14 -19 44 l0
39 -65 0 -65 0 0 -40z"/>
<path d="M555 768 c-14 -45 -3 -108 19 -108 7 0 18 6 25 13 11 10 13 10 7 0
-5 -9 0 -13 12 -13 21 0 32 25 32 72 0 33 -9 58 -22 58 -21 0 -47 -45 -42 -72
2 -16 0 -28 -6 -28 -17 0 -12 67 6 74 8 3 12 10 9 16 -11 18 -32 11 -40 -12z
m75 -43 c0 -19 -5 -35 -11 -35 -6 0 -8 13 -5 33 5 38 5 37 11 37 3 0 5 -16 5
-35z"/>
<path d="M358 538 c-10 -12 -18 -30 -18 -39 0 -27 11 -49 21 -43 5 3 9 -7 9
-22 0 -27 -1 -27 -15 -8 -12 16 -14 16 -15 3 0 -22 41 -68 47 -51 3 6 11 12
19 12 7 0 16 11 20 24 6 25 -10 66 -26 66 -6 0 -10 10 -9 23 0 12 3 16 6 10 2
-7 12 -13 20 -13 10 0 13 6 9 16 -3 9 -6 18 -6 20 0 2 -7 4 -15 4 -8 0 -15 5
-15 10 0 16 -14 11 -32 -12z m9 -50 c-3 -7 -5 -2 -5 12 0 14 2 19 5 13 2 -7 2
-19 0 -25z m39 -63 c1 -8 -2 -15 -7 -15 -5 0 -9 10 -9 22 0 23 12 17 16 -7z"/>
<path d="M479 543 c-24 -6 -38 -44 -26 -71 6 -12 15 -22 21 -21 27 3 36 -2 36
-21 0 -22 -35 -29 -42 -8 -2 6 -10 8 -16 4 -18 -11 11 -36 42 -36 26 0 35 8
41 39 4 24 -29 56 -50 48 -11 -5 -15 0 -15 18 0 18 5 25 20 25 11 0 20 -4 20
-10 0 -5 7 -10 16 -10 13 0 14 3 5 13 -6 8 -8 16 -6 19 8 7 -26 15 -46 11z"/>
<path d="M565 465 l0 -75 33 0 c17 0 32 5 32 10 0 6 -9 10 -20 10 -13 0 -20 7
-20 20 0 13 7 20 20 20 11 0 20 7 20 15 0 10 -7 15 -17 13 -12 -2 -19 4 -21
20 -3 16 2 22 17 22 11 0 23 5 26 10 4 6 -9 10 -32 10 l-38 0 0 -75z"/>
<path d="M675 465 l-1 -75 33 0 c18 0 33 5 33 10 0 6 -9 10 -20 10 -13 0 -20
7 -20 20 0 13 7 20 20 20 11 0 20 7 20 15 0 8 -3 14 -7 14 -23 -4 -33 3 -33
21 0 13 7 20 20 20 11 0 20 5 20 10 0 6 -15 10 -32 10 l-33 0 0 -75z"/>
<path d="M770 465 l0 -75 34 0 c28 0 36 5 46 31 8 17 13 37 13 44 0 7 -5 27
-13 44 -10 26 -18 31 -46 31 l-34 0 0 -75z m64 29 c10 -40 -2 -86 -22 -82 -12
2 -17 15 -17 48 -1 25 1 48 3 53 8 17 30 5 36 -19z"/>
</g>
</svg>
